<svg xmlns="http://www.w3.org/2000/svg" viewBox="-640.956 662.683 1000 290.603" width="1000" height="290.603">
  <path d="M217.273 840.847c-38.838 0 -54.59 -29.332 -54.59 -61.923 0 -33.134 16.024 -62.466 54.59 -62.466 38.838 0 54.59 29.332 54.59 62.466 0.272 32.591 -15.752 61.923 -54.59 61.923m-267.789 0c-38.838 0 -54.59 -29.332 -54.59 -61.923 0 -33.134 16.024 -62.466 54.59 -62.466 38.838 0 54.59 29.332 54.59 62.466 0 32.591 -15.752 61.923 -54.59 61.923m-252.852 0c-38.838 0 -54.59 -29.332 -54.59 -61.923 0 -33.134 15.752 -62.466 54.59 -62.466s54.59 29.332 54.59 62.466c0 32.591 -15.752 61.923 -54.59 61.923M217.273 662.683c-63.552 0 -115.155 26.616 -133.895 74.144C64.639 689.299 13.036 662.683 -50.516 662.683c-56.491 0 -103.476 20.913 -126.562 58.935 -22.814 -37.751 -69.799 -58.935 -126.29 -58.935 -80.391 0 -141.771 42.64 -141.771 115.97 0 18.468 3.802 35.035 11.135 49.43 -0.815 0.272 -1.901 0.815 -2.716 1.086 -3.531 1.358 -7.605 2.716 -11.95 4.074 -11.135 2.988 -23.628 4.617 -36.122 4.617 -36.393 0 -69.256 -22.814 -69.256 -58.121 0 -38.294 27.974 -61.108 64.367 -61.108 13.851 0.272 24.715 1.086 35.578 4.889 0 0 12.493 -27.431 33.677 -43.183 -4.074 -1.901 -8.419 -3.802 -12.765 -5.703 -19.011 -8.148 -41.282 -11.95 -66.268 -11.95 -80.391 0 -141.499 42.64 -141.499 115.97 0 73.058 61.108 115.698 141.499 115.698 21.184 0 44.813 -2.988 65.182 -8.691 7.605 -1.901 25.53 -7.876 38.566 -15.481 24.443 15.752 56.491 24.172 92.341 24.172 56.491 0 103.476 -20.913 126.562 -58.935 23.085 37.751 70.071 58.935 126.562 58.935s103.205 -20.913 126.29 -58.664V953.286h86.366v-66.54c16.839 4.889 35.307 7.605 55.133 7.605 80.391 0 141.499 -42.368 141.499 -115.698S297.664 662.683 217.273 662.683" style="fill:#00aa46;fill-opacity:1"/>
</svg>
