<svg viewBox="0 0 1000 500" xmlns="http://www.w3.org/2000/svg" width="1000" height="500">
  <path d="M720.37 0 1000 490.741H858.333l-30.741-53.333H686.666l49.259-86.482h42.408l-58.148-102.592-60.926 106.482c-9.574 16.667-19.259 31.296-28.704 43.889-46.482 61.296-121.852 100.556-205.556 100.556-140.37 0-255.556-111.111-255.556-248.148S283.704 2.963 425 2.963c47.963 0 91.111 12.667 128.704 33.889l-60.185 105.926a135.9 135.9 0 0 0-68.518-18.704c-71.852 0-130 56.667-130 126.482 0 70 58.148 126.482 130 126.482 39.074 0 71.111-15.982 94.444-39.259 10.278-9.982 21.852-26.667 25.37-32.592L720-2.222zM0 490.741V12.963h124.63v477.778z" fill-rule="evenodd" style="fill:#e3000b" fill="#E3000B"/>
</svg>
