<svg xmlns="http://www.w3.org/2000/svg" width="1000" height="1000" viewBox="0 0 77.102 77.102">
  <g fill-rule="evenodd" clip-rule="evenodd">
    <path fill="#cc2229" stroke="#cc2229" stroke-width="0.148" stroke-miterlimit="2.613" d="m19.159 43.06 8.874 -9.019 7.56 7.523 3.88 -3.845 0.083 3.23 -12.611 12.57 -1.619 -1.608 2.066 -1.944 -5.888 -6.026 -2.175 2.098z"/>
    <path fill="#1e71b8" stroke="#1e71b8" stroke-width="0.148" stroke-miterlimit="2.613" d="M57.623 31.483h12.555v2.824h-1.981v10.067l7.744 -4.237 0.028 7.397h-18.416v-2.923h2.066l0.013 -10.304h-1.994z"/>
    <path d="M26.944 33.384c2.678 0 4.882 -2.209 4.882 -4.908 0 -2.698 -2.204 -4.893 -4.882 -4.893 -2.706 0 -4.898 2.195 -4.898 4.893 0 2.699 2.191 4.908 4.898 4.908z" fill="#cc2229" stroke="#cc2229" stroke-width="0.148" stroke-miterlimit="2.613"/>
    <path fill="#1e71b8" stroke="#1e71b8" stroke-width="0.148" stroke-miterlimit="2.613" d="M1.204 31.665h12.543v2.824h-1.968v10.067l7.744 -4.236 0.013 7.396H1.134v-2.908h2.051l0.015 -10.318H1.191z"/>
    <path d="M50.117 47.506H37.045v-2.838h2.218l-0.042 -10.263h-2.218v-2.783h13.183c3.823 -0.014 6.864 2.657 6.906 7.913 -0.028 5.427 -3.404 7.971 -6.975 7.971m-2.61 -4.964c1.522 -0.013 2.792 -0.88 2.805 -3.215 0 -2.266 -1.311 -3.258 -2.776 -3.258z" fill="#1e71b8"/>
  </g>
</svg>
