<svg xmlns="http://www.w3.org/2000/svg" viewBox="0 0 1000 207.966" xml:space="preserve" class="sc-7b472ccd-0 dUuFKq" width="1000" height="207.966">
  <path fill-rule="evenodd" clip-rule="evenodd" fill="#E60019" d="M537.055 58.113h-23.18V24.812H607.248v33.301h-22.527v100.555h14.365l3.265 -17.63 0.653 -0.326h0.653l0.326 0.326h35.586v56.807h-125.694v-29.383l23.18 -5.224z"/>
  <path fill-rule="evenodd" clip-rule="evenodd" d="M10.447 58.113V24.812h77.049v33.301H71.825l13.386 68.56 23.18 -101.861h49.298l22.853 99.902 15.018 -66.601h-16.324V24.812h74.11v33.301h-10.774L207.966 197.845H149.853L130.591 98.596l-21.548 99.249H53.869L20.242 58.113z"/>
  <path fill-rule="evenodd" clip-rule="evenodd" fill="#E60019" d="M393.405 58.113h-23.18V24.812H463.598v33.301h-22.527v100.555h14.365l3.265 -17.63h0.326l0.326 -0.326h0.653l0.653 0.326h35.26v56.807h-125.694v-29.383l23.18 -5.224z"/>
  <path fill-rule="evenodd" clip-rule="evenodd" d="M637.61 58.113V31.668l-0.326 -3.265 0.326 -3.591H705.191l3.265 0.326 3.265 -0.326v33.301h-10.121l15.018 32.648 16.324 -32.648h-11.1V24.812h73.784v33.301H783.546l-42.116 82.925V163.239l20.895 5.224v29.383h-93.373v-29.383l22.853 -5.224v-22.2l-17.63 -31.995 -4.244 -8.815 -22.853 -42.116zm234.737 4.897c1.959 -8.162 5.224 -13.712 10.121 -20.568l4.571 -4.571 5.224 -4.244c10.774 -6.856 21.874 -9.468 34.28 -11.1l3.265 -0.326h12.406l5.877 0.326 5.877 0.653 5.877 0.653 5.877 0.653 5.877 0.979 5.877 0.979 5.877 0.979v50.604h-41.136v-16.65h-3.591l-4.244 0.979 -5.877 2.285c-8.162 4.571 -9.468 12.733 -0.979 17.956l2.612 1.632 5.55 2.285 8.488 2.938 4.244 1.632c11.427 4.571 24.159 10.447 32.321 19.589l3.918 5.55c6.856 13.386 7.183 21.874 3.591 36.239l-0.653 2.612c-5.224 16.324 -14.691 27.424 -31.015 35.586l-5.877 2.612c-18.283 6.856 -33.954 6.53 -53.542 5.224l-5.55 -0.653 -16.324 -2.938V141.038h39.504V156.709h12.733l5.224 -1.959 0.979 -0.326c7.835 -5.877 4.571 -12.08 -0.979 -17.303l-0.979 -0.653 -5.877 -2.285 -6.856 -2.285 -6.856 -2.285 -6.856 -2.612 -9.794 -4.244 -5.877 -3.918 -5.224 -4.571 -4.244 -5.224 -3.591 -5.224 -2.612 -4.897 -0.979 -2.612c-3.265 -12.08 -3.918 -21.548 -0.653 -33.301M264.447 69.866h64.316l1.632 0.326 1.959 -0.326h1.959V163.239l18.283 5.224v29.383H264.447v-29.383l21.874 -5.224V104.473H264.447zM310.48 7.509a27.751 27.751 0 1 1 0.033 55.468A27.751 27.751 0 0 1 310.48 7.509m510.284 69.213a27.751 27.751 0 1 1 0.033 55.468 27.751 27.751 0 0 1 -0.033 -55.468m0 69.54a27.751 27.751 0 1 1 0.033 55.468 27.751 27.751 0 0 1 -0.033 -55.468"/>
</svg>
